<svg width="23" height="20" viewBox="0 0 23 20" fill="none" xmlns="http://www.w3.org/2000/svg">
<rect x="5.41187" y="4.41113" width="15.0517" height="12.9756" fill="url(#paint0_linear_14551_26)"/>
<path d="M4.89278 1.29688H20.9825L22.0206 4.67053H3.85474L4.89278 1.29688Z" fill="url(#paint1_linear_14551_26)"/>
<rect width="2.0761" height="2.0761" transform="matrix(1 0 0 -1 17.6089 2.07617)" fill="url(#paint2_linear_14551_26)"/>
<rect x="6.96899" y="6.22656" width="2.59512" height="2.59512" rx="0.5" fill="#FFFAF5"/>
<rect x="6.96899" y="11.418" width="2.59512" height="2.59512" rx="0.5" fill="#FFFAF5"/>
<rect x="11.6401" y="6.22656" width="2.59512" height="2.59512" rx="0.5" fill="#FFFAF5"/>
<rect x="11.6401" y="11.418" width="2.59512" height="2.59512" rx="0.5" fill="#FFFAF5"/>
<rect x="16.3115" y="6.22656" width="2.59512" height="2.59512" rx="0.5" fill="#FFFAF5"/>
<rect x="16.3115" y="11.418" width="2.59512" height="2.59512" rx="0.5" fill="#FFFAF5"/>
<path fill-rule="evenodd" clip-rule="evenodd" d="M5.43609 13.5909C7.51432 11.4546 12.7104 15.1929 5.43609 19.9998C-1.83819 15.1934 3.35786 11.4546 5.43609 13.5909Z" fill="url(#paint3_linear_14551_26)"/>
<path d="M1 16.9199H2.47878L3.0703 15.7369L4.05615 18.0536L4.99271 16.3284L5.73211 16.8706L6.52079 14.8496L7.55594 17.4128L7.95028 16.8706H9.82341" stroke="white" stroke-width="0.492928" stroke-linecap="round" stroke-linejoin="round"/>
<defs>
<linearGradient id="paint0_linear_14551_26" x1="12.9377" y1="4.41113" x2="12.9377" y2="17.3867" gradientUnits="userSpaceOnUse">
<stop stop-color="#FFAD97"/>
<stop offset="1" stop-color="#FF5B2E"/>
</linearGradient>
<linearGradient id="paint1_linear_14551_26" x1="12.9377" y1="1.29687" x2="12.9377" y2="4.67053" gradientUnits="userSpaceOnUse">
<stop stop-color="#FFAD97"/>
<stop offset="1" stop-color="#FF5B2E"/>
</linearGradient>
<linearGradient id="paint2_linear_14551_26" x1="1.03805" y1="0" x2="1.03805" y2="2.0761" gradientUnits="userSpaceOnUse">
<stop stop-color="#FFAD97"/>
<stop offset="1" stop-color="#FF5B2E"/>
</linearGradient>
<linearGradient id="paint3_linear_14551_26" x1="5.43609" y1="12.9756" x2="5.43609" y2="19.9998" gradientUnits="userSpaceOnUse">
<stop stop-color="#FF9071"/>
<stop offset="1" stop-color="#FF5B2E"/>
</linearGradient>
</defs>
</svg>
